<svg width="1335" height="1280" viewBox="0 0 1335 1280" fill="none" xmlns="http://www.w3.org/2000/svg">
<path d="M226.5 58.3C232.2 96.4 244.2 142.3 291 185.8L261.9 228.1C229.2 191.2 203.1 138.4 180.6 70.9L226.5 58.3ZM23.1 72.7C28.8 73 34.8 73 40.5 72.7C69.9 71.2 119.7 64.9 140.7 57.7L154.2 97.9C149.7 99.7 144.3 102.1 139.8 105.1C118.2 121.3 81 164.2 81 219.4C81 250.3 100.8 264.1 128.4 264.1C194.7 264.1 212.4 190.3 183.6 77.5L226.5 144.4C243.6 222.4 231 313.3 127.5 313.3C78.9 313.3 33.9 286.9 33.9 229.9C33.9 184.9 49.2 152.2 78 113.5C68.4 113.8 52.5 115.6 45 116.5C38.1 117.4 33.6 118 26.4 119.5L23.1 72.7ZM99.9 368.9C129.9 378.2 196.2 389.3 222.3 392.3L211.5 437C180 432.8 112.2 418.4 88.5 412.4L99.9 368.9ZM106.8 432.2C102.6 446.9 97.5 478.7 96 494.9C122.1 478.1 150.3 470.6 179.1 470.6C235.5 470.6 266.1 505.7 266.1 542.6C266.1 598.1 225 643.4 93 632L78.9 584.3C166.5 597.2 214.8 578.3 214.8 541.7C214.8 524.6 198.6 512 174.6 512C144 512 114.6 523.4 96.9 544.7C90.9 551.9 87.6 556.7 84.6 563.3L42.9 553.1C48.9 522.5 55.8 466.1 57.9 425.6L106.8 432.2ZM141.6 700.2C139.5 709.2 137.1 720.6 135.3 729C132 744.3 128.4 759.3 125.7 772.8C116.1 815.4 90.3 906.9 60.3 955.2L12.9 936.3C49.2 887.1 71.1 808.2 79.5 770.1C85.2 741.3 88.2 716.4 87.6 694.5L141.6 700.2ZM245.1 727.8C263.4 754.8 288 811.2 296.7 840.3L250.2 861.6C243 826.8 222.9 773.7 201.3 746.1L245.1 727.8ZM12.3 759.3C24 760.2 35.4 759.6 47.4 759.3C72.3 758.7 126.9 752.4 150.3 752.4C184.8 752.4 207.6 768.6 207.6 813.6C207.6 848.7 203.7 897.9 190.8 924.3C180.6 945.9 162.9 953.4 138.6 953.4C126.9 953.4 112.8 951.6 102 949.2L94.2 901.5C105.3 904.5 123.3 907.8 130.8 907.8C140.4 907.8 147.3 904.5 151.2 896.4C158.7 881.4 162.3 846.3 162.3 818.4C162.3 796.5 153.3 793.8 134.7 793.8C118.2 793.8 69 800.1 53.4 802.5C43.8 804 26.4 806.4 16.5 808.2L12.3 759.3ZM234.6 687.3C242.1 698.4 252.6 717.9 258 728.4L229.5 740.4C223.2 728.1 214.5 710.4 206.4 698.7L234.6 687.3ZM271.5 672.9C279.3 684.3 290.1 703.5 295.2 713.7L267 725.7C261 713.4 251.4 695.7 243.3 684.3L271.5 672.9ZM22.5 1057.3C36.3 1058.8 54.3 1059.4 64.2 1059.4C103.8 1059.4 146.1 1051.6 171.9 1043.8L173.1 1085.5C149.4 1092.1 103.8 1100.5 64.5 1100.5C51.9 1100.5 39.6 1100.2 25.8 1099.3L22.5 1057.3ZM144.9 1014.4C141 1030.9 133.2 1061.2 124.5 1088.8C111 1132 84.3 1188.4 58.5 1225L14.7 1202.8C42 1168.6 68.7 1116.7 79.8 1085.8C87.6 1063 94.2 1033.9 95.1 1009.6L144.9 1014.4ZM215.1 1108.3C214.2 1121.2 214.8 1135.6 215.1 1150.3C215.7 1167.1 218.4 1211.2 218.4 1226.5C218.4 1256.5 203.4 1279.6 157.5 1279.6C117.9 1279.6 87 1261 87 1226.2C87 1196.2 110.7 1170.4 156.9 1170.4C210.6 1170.4 253.5 1197.4 278.7 1220.8L254.7 1259.8C234 1240.3 199.8 1207 153.9 1207C139.2 1207 129.9 1213 129.9 1221.7C129.9 1231.3 138.3 1237.9 150.9 1237.9C168.9 1237.9 174.3 1227.4 174.3 1210.6C174.3 1195.3 171 1138.9 169.5 1108.3H215.1ZM261.9 1128.7C243.9 1114.6 208.8 1094.5 187.8 1085.2L211.2 1049.2C232.8 1058.5 271.5 1079.2 287.7 1090.3L261.9 1128.7Z" fill="black" fill-opacity="0.1"/>
<path d="M508.8 48.7C507.9 55.9 507 69.7 506.7 76.9C503.4 194.5 478.2 257.8 407.7 308.5L365.4 274.3C379.5 266.5 396 255.4 409.8 241C450 199.3 457.8 148 457.8 77.8C457.8 71.2 456.6 55.9 455.4 48.7H508.8ZM609.3 114.1C608.4 118.9 607.2 127.6 607.2 130.6C606 165.1 602.1 247 589.5 278.5C582.9 295 570.3 304.3 547.5 304.3C528.9 304.3 510.9 302.8 496.8 301.6L491.1 253C505.2 255.7 520.5 257.5 531.9 257.5C542.1 257.5 545.4 253.9 548.4 246.4C555.6 229.9 559.8 177.7 559.8 145H420C410.7 145 391.5 145.3 377.7 146.5V99.1C391.5 100.6 408.6 101.5 420 101.5H553.5C561 101.5 570 100.6 578.4 99.1L609.3 114.1ZM475.8 471.8C511.8 492.5 570.9 533 597.6 554.3L562.8 595.7C537.3 571.4 477.3 526.7 443.4 505.1L475.8 471.8ZM619.2 422.9C615.3 429.5 610.8 438.5 607.5 447.5C598.2 473.6 580.2 511.1 553.2 545C524.4 581 486.3 615.2 428.7 637.4L386.4 600.8C453 580.1 486 548.6 510.9 519.8C529.5 498.2 547.8 465.8 552.9 445.1H456.9L473.1 404H552.9C562.8 404 574.8 402.5 582.6 400.1L619.2 422.9ZM521.1 375.2C512.7 387.2 503.7 402.8 499.8 409.7C478.2 447.8 437.1 494 396.9 521.9L357.6 491.6C410.7 458.9 436.8 419.9 452.7 394.7C458.1 386.3 465.3 370.7 468.6 359L521.1 375.2ZM508.8 692.7C507.9 699.9 507 713.7 506.7 720.9C503.4 838.5 478.2 901.8 407.7 952.5L365.4 918.3C379.5 910.5 396 899.4 409.8 885C450 843.3 457.8 792 457.8 721.8C457.8 715.2 456.6 699.9 455.4 692.7H508.8ZM609.3 758.1C608.4 762.9 607.2 771.6 607.2 774.6C606 809.1 602.1 891 589.5 922.5C582.9 939 570.3 948.3 547.5 948.3C528.9 948.3 510.9 946.8 496.8 945.6L491.1 897C505.2 899.7 520.5 901.5 531.9 901.5C542.1 901.5 545.4 897.9 548.4 890.4C555.6 873.9 559.8 821.7 559.8 789H420C410.7 789 391.5 789.3 377.7 790.5V743.1C391.5 744.6 408.6 745.5 420 745.5H553.5C561 745.5 570 744.6 578.4 743.1L609.3 758.1ZM477.9 1055.8C477.9 1045.3 476.7 1029.1 473.4 1017.7H531C528.9 1029.1 528.3 1046.5 528.3 1056.1C528.3 1072.9 528.3 1092.1 528.3 1113.1C528.3 1177.9 514.2 1233.7 441.3 1278.1L396 1244.5C462.9 1214.5 477.9 1165.6 477.9 1113.1C477.9 1092.1 477.9 1072.3 477.9 1055.8ZM369.3 1082.2C380.1 1083.4 393 1084.6 405.9 1084.6C424.5 1084.6 568.2 1084.6 588.9 1084.6C604.8 1084.6 618.3 1083.4 625.5 1082.5V1132.3C618.3 1131.7 602.1 1130.8 588.6 1130.8C568.2 1130.8 424.5 1130.8 407.1 1130.8C393 1130.8 380.4 1131.7 369.3 1132.6V1082.2Z" fill="black" fill-opacity="0.1"/>
<path d="M846.6 260.2C900.3 251.8 933.6 231.7 933.6 187.6C933.6 163.9 914.4 147.4 889.8 147.4C851.7 147.4 820.8 169.6 791.4 201.1L791.7 149.8C827.4 116.2 865.2 104.8 897.6 104.8C946.2 104.8 982.5 139.3 982.5 188.5C982.5 249.4 947.7 288.1 868.2 304L846.6 260.2ZM778.2 137.8C762.6 139.3 736.5 142.9 717.9 145.3L713.4 99.1C723 99.4 730.5 99.4 743.1 98.8C763.5 97.6 802.8 91.6 816 87.1L829.8 105.4C824.7 112 814.8 127.6 809.7 135.1L787.5 200.2C774.6 218.2 748.8 258.4 734.4 277.6L706.2 237.7C725.4 214 759 170.8 775.8 145.3L776.1 141.7L778.2 137.8ZM774.3 75.4C774.3 65.8 774.6 56.2 772.8 46L825.3 47.5C819.6 73.9 809.4 148.6 809.4 202.6C809.4 225.4 809.4 254.8 811.5 283.6C811.8 289 813 301.9 813.9 309.4H764.1C764.7 301.6 765 289.3 765 284.5C765.6 255.4 765.9 232.6 767.1 192.4C768 165.4 774.3 87.7 774.3 75.4ZM846.6 582.2C900.3 573.8 933.6 553.7 933.6 509.6C933.6 485.9 914.4 469.4 889.8 469.4C851.7 469.4 820.8 491.6 791.4 523.1L791.7 471.8C827.4 438.2 865.2 426.8 897.6 426.8C946.2 426.8 982.5 461.3 982.5 510.5C982.5 571.4 947.7 610.1 868.2 626L846.6 582.2ZM778.2 459.8C762.6 461.3 736.5 464.9 717.9 467.3L713.4 421.1C723 421.4 730.5 421.4 743.1 420.8C763.5 419.6 802.8 413.6 816 409.1L829.8 427.4C824.7 434 814.8 449.6 809.7 457.1L787.5 522.2C774.6 540.2 748.8 580.4 734.4 599.6L706.2 559.7C725.4 536 759 492.8 775.8 467.3L776.1 463.7L778.2 459.8ZM774.3 397.4C774.3 387.8 774.6 378.2 772.8 368L825.3 369.5C819.6 395.9 809.4 470.6 809.4 524.6C809.4 547.4 809.4 576.8 811.5 605.6C811.8 611 813 623.9 813.9 631.4H764.1C764.7 623.6 765 611.3 765 606.5C765.6 577.4 765.9 554.6 767.1 514.4C768 487.4 774.3 409.7 774.3 397.4ZM860.7 833.4H904.8V907.2C904.8 917.7 906 918.9 914.1 918.9C917.7 918.9 929.4 918.9 933.6 918.9C941.4 918.9 942.9 913.8 944.1 880.2C952.8 887.1 972 894.3 983.7 897.3C979.5 946.5 968.1 960 937.8 960C930.3 960 914.4 960 907.2 960C869.4 960 860.7 946.5 860.7 907.5V833.4ZM711.3 800.7H981.6V842.7H711.3V800.7ZM760.8 716.7H956.7V758.4H760.8V716.7ZM779.7 833.7H825.6C819.9 888 807 936.9 733.5 966C728.4 954.3 716.1 936.3 706.2 927.3C769.2 906.6 775.5 871.2 779.7 833.7ZM756.9 682.2L801.3 690.9C791.4 726.9 776.7 770.7 756.9 797.1C746.7 790.5 728.7 781.8 717.9 777.9C737.1 753.6 750.9 712.8 756.9 682.2ZM824.4 679.5H868.8V813.3H824.4V679.5ZM758.1 1053.7H967.5V1096.3H758.1V1053.7ZM746.1 1142.2H955.5V1184.2H746.1V1142.2ZM710.4 1235.8H983.4V1278.4H710.4V1235.8ZM823.8 1001.5H869.4V1256.8H823.8V1001.5ZM753.3 1004.5L798.6 1014.7C785.4 1061.2 763.2 1108.3 740.1 1137.1C731.4 1129.6 711.9 1116.7 700.8 1110.7C723.9 1086.1 743.1 1045 753.3 1004.5Z" fill="black" fill-opacity="0.1"/>
<path d="M1065.1 105.1H1325.5V167.2H1282.3V137.8H1106.2V161.8H1065.1V105.1ZM1282.9 34.9L1311.7 63.4C1246.6 76.9 1156.9 82 1080.7 82.9C1079.8 73.9 1075.9 59.5 1072.3 51.7C1147 50.5 1232.5 45.1 1282.9 34.9ZM1101.1 82.6L1135.3 68.5C1143.4 78.1 1152.1 91.6 1155.1 101.5L1118.8 116.8C1116.4 107.5 1108.6 93.1 1101.1 82.6ZM1165.9 76.3L1200.4 63.7C1208.2 74.5 1216.3 89.2 1219 99.7L1182.4 113.2C1180.3 103.3 1173.1 87.7 1165.9 76.3ZM1237.9 162.1L1266.7 141.4C1284.4 154 1305.4 172.9 1314.7 187.3L1283.8 210.4C1275.4 196.3 1255.3 175.9 1237.9 162.1ZM1165.3 143.8L1185.7 122.2C1200.4 127.6 1219.3 137.5 1228.9 145.6L1207.3 169.3C1198.6 161.2 1180.3 150.1 1165.3 143.8ZM1257.7 64L1300.6 77.2C1289.5 93.1 1278.7 108.4 1270 118.3L1237.3 106.3C1244.5 94.3 1253.2 76.9 1257.7 64ZM1241.8 212.5H1250.2L1257.1 211.3L1284.4 228.4C1247.5 288.7 1168.6 312.4 1081.3 321.4C1077.4 311.5 1066.6 294.1 1058.8 285.7C1143.4 280.9 1215.7 262.9 1241.8 218.5V212.5ZM1152.7 232.3C1186 264.7 1252.6 279.1 1334.5 282.1C1325.5 291.4 1315 309.4 1309.6 320.8C1225 314.2 1160.5 292.9 1118.8 245.2L1152.7 232.3ZM1165.3 188.8L1202.8 201.7C1177.6 233.5 1135 257.8 1095.7 272.2C1089.1 264.7 1075 250.3 1066.6 243.7C1106.5 232.9 1145.5 213.4 1165.3 188.8ZM1138.9 148.6H1178.8V164.8C1178.8 172 1180.6 172.6 1189.6 172.6C1193.5 172.6 1208.8 172.6 1213.9 172.6C1220.5 172.6 1222.3 170.8 1223.5 161.8C1231 166.3 1246 171.1 1256.2 172.9C1252.6 195.7 1242.7 202 1218.7 202C1210.9 202 1191.1 202 1183.6 202C1147.3 202 1138.9 193.3 1138.9 165.1V148.6ZM1112.5 147.7L1144.9 162.1C1135.9 181 1123 199.9 1103.5 212.8L1073.8 188.8C1090.6 179.5 1104.7 163.6 1112.5 147.7ZM1161.1 212.5H1251.7V241.6H1132L1161.1 212.5ZM1161.7 373.7C1159.6 387.8 1157.8 406.1 1157.2 419.3C1155.7 450.8 1153.6 515.6 1153.6 548.6C1153.6 577.4 1170.1 586.4 1190.5 586.4C1237 586.4 1268.5 559.1 1290.4 525.5L1323.4 566C1304.8 594.8 1260.1 636.2 1190.2 636.2C1137.7 636.2 1105 612.5 1105 560C1105 522.2 1107.7 441.8 1107.7 419.3C1107.7 403.1 1106.2 386.6 1103.2 373.1L1161.7 373.7ZM1064.2 725.7C1076.2 725.4 1089.4 724.8 1095.1 724.2C1123.3 721.8 1168.6 718.2 1223.5 713.4C1253.5 711 1288.9 708.9 1310.8 708L1311.1 754.8C1295.5 755.1 1270 755.1 1253.5 758.4C1221.1 765.6 1193.2 800.7 1193.2 836.4C1193.2 880.5 1234.6 897.9 1286.5 900.9L1269.4 951.3C1202.5 946.2 1145.2 909.9 1145.2 846C1145.2 804.9 1167.1 773.1 1183.3 758.4C1157.5 761.1 1104.7 767.1 1068.7 775.2L1064.2 725.7ZM1108 1025.2C1117.3 1026.4 1128.7 1027 1138.6 1027C1154.8 1027 1214.8 1026.1 1232.5 1024.6C1246.9 1023.4 1255.3 1022.2 1259.2 1021L1281.7 1053.1C1273.9 1057.9 1266.1 1062.4 1258.6 1067.8C1241.8 1079.2 1215.4 1100.8 1198.9 1113.4C1206.7 1111.9 1212.7 1111.6 1219.9 1111.6C1271.5 1111.6 1312 1144.6 1312 1189.9C1312 1236.7 1278.1 1277.8 1200.4 1277.8C1158.1 1277.8 1123 1258 1123 1225C1123 1198.6 1147 1174 1181.2 1174C1222.9 1174 1247.5 1201.6 1247.5 1235.8L1204.9 1240.9C1204.9 1221.4 1195.3 1208.5 1181.5 1208.5C1171.6 1208.5 1165.9 1214.5 1165.9 1220.5C1165.9 1229.8 1175.8 1236.4 1191.1 1236.4C1241.5 1236.4 1264 1218.4 1264 1189.3C1264 1163.5 1237.6 1147.3 1204.6 1147.3C1160.8 1147.3 1129.3 1173.7 1100.5 1208.8L1067.5 1174.6C1086.7 1159.6 1121.8 1129.9 1139.5 1115.2C1156.3 1101.4 1184.2 1079.8 1198.6 1066.9C1183.6 1067.2 1152.7 1068.4 1136.5 1069.6C1127.5 1070.2 1116.7 1071.1 1109.5 1072.3L1108 1025.2Z" fill="black" fill-opacity="0.1"/>
</svg>
